<?xml version="1.0" encoding="UTF-8"?>
<svg xmlns="http://www.w3.org/2000/svg" viewBox="0 0 180 180">
  <!-- Background rounded square -->
  <rect width="180" height="180" rx="45" fill="#050b17"/>
  
  <!-- Jet plane silhouette (adjusted for apple touch icon dimensions) -->
  <path fill="#4a89dc" d="M159.26,29.43c-1.09-1.09-2.69-1.4-4.09-0.8L123,42.77l-52.1,1.05L39.32,28.62
    c-2.44-1.12-5.31,0.1-6.29,2.87c-0.32,0.88-0.46,1.78-0.35,2.69v41.36c0,1.54,0.84,2.94,2.24,3.64
    c1.4,0.7,3.04,0.42,4.22,0.63l30.86-7.48v29.81c0,1.47,0.77,2.8,1.99,3.53c1.22,0.73,2.73,0.7,3.95-0.1
    l29.81-22.36L123,92.12v74.64c0,1.33,0.7,2.56,1.82,3.22c0.66,0.38,1.4,0.59,2.13,0.59c0.6,0,1.19-0.14,1.75-0.38
    c1.36-0.63,2.24-1.96,2.34-3.43l0.94-48.7l27.85-26.43c1.08-1.08,1.08-2.87,0-3.95L159.26,29.43z
    M59.78,63.08L30,77.75V44.34l29.78-13.81V63.08z"/>
  
  <!-- Light glow effect -->
  <circle cx="90" cy="90" r="56" fill="url(#glow)" opacity="0.3"/>
  
  <!-- Gradients definitions -->
  <defs>
    <radialGradient id="glow" cx="0.5" cy="0.5" r="0.5" gradientUnits="objectBoundingBox">
      <stop offset="0%" stop-color="#4a89dc" stop-opacity="1"/>
      <stop offset="100%" stop-color="#4a89dc" stop-opacity="0"/>
    </radialGradient>
  </defs>
</svg>