<?xml version="1.0" encoding="UTF-8"?>
<svg width="180" height="180" viewBox="0 0 180 180" xmlns="http://www.w3.org/2000/svg">
  <rect width="180" height="180" rx="45" fill="#050b17"/>
  <path fill="#4a89dc" d="M160,29.5c-1.1-1.1-2.7-1.4-4.1-0.8L124,43l-52.5,1.1L39.8,28.8c-2.5-1.1-5.3,0.1-6.3,2.9
    c-0.3,0.9-0.5,1.8-0.4,2.7v41.7c0,1.5,0.8,3,2.2,3.7c1.4,0.7,3.1,0.4,4.3,0.6l31-7.5v30c0,1.5,0.8,2.8,2,3.6
    c1.2,0.7,2.7,0.7,4-0.1l30-22.5L124,93v75c0,1.3,0.7,2.6,1.8,3.2c0.7,0.4,1.4,0.6,2.1,0.6c0.6,0,1.2-0.1,1.8-0.4
    c1.4-0.6,2.2-2,2.4-3.4l1-49l28-26.6c1.1-1.1,1.1-2.9,0-4L160,29.5z M60.3,63.5L30.3,78.2v-33.5l30-13.9V63.5z"/>
</svg>