<?xml version="1.0" encoding="UTF-8"?>
<svg width="400" height="400" viewBox="0 0 400 400" fill="none" xmlns="http://www.w3.org/2000/svg">
  <!-- Background Circle -->
  <circle cx="200" cy="200" r="200" fill="#0C4A6E"/>
  <!-- Secondary Gradient Background -->
  <circle cx="200" cy="200" r="180" fill="url(#paint0_radial)"/>
  <!-- Avatar Face -->
  <circle cx="200" cy="170" r="80" fill="#FFFFFF"/>
  <!-- Eyes -->
  <circle cx="170" cy="160" r="12" fill="#111827"/>
  <circle cx="230" cy="160" r="12" fill="#111827"/>
  <!-- Eyebrows -->
  <path d="M155 140C155 140 165 132 185 140" stroke="#111827" stroke-width="4" stroke-linecap="round"/>
  <path d="M215 140C215 140 225 132 245 140" stroke="#111827" stroke-width="4" stroke-linecap="round"/>
  <!-- Mouth -->
  <path d="M160 190C160 190 180 210 240 190" stroke="#111827" stroke-width="4" stroke-linecap="round"/>
  <!-- Professional Elements -->
  <rect x="150" y="260" width="100" height="30" rx="15" fill="#FFFFFF"/>
  <path d="M180 250V270" stroke="#FFFFFF" stroke-width="4" stroke-linecap="round"/>
  <path d="M220 250V270" stroke="#FFFFFF" stroke-width="4" stroke-linecap="round"/>
  <!-- Decorative Elements -->
  <circle cx="110" cy="130" r="20" fill="#38BDF8" opacity="0.6"/>
  <circle cx="290" cy="130" r="20" fill="#38BDF8" opacity="0.6"/>
  <circle cx="110" cy="280" r="25" fill="#38BDF8" opacity="0.4"/>
  <circle cx="290" cy="280" r="25" fill="#38BDF8" opacity="0.4"/>
  <!-- Gradient Definition -->
  <defs>
    <radialGradient id="paint0_radial" cx="0" cy="0" r="1" gradientUnits="userSpaceOnUse" gradientTransform="translate(200 200) rotate(90) scale(180)">
      <stop offset="0" stop-color="#0EA5E9"/>
      <stop offset="1" stop-color="#0C4A6E"/>
    </radialGradient>
  </defs>
</svg>